HIERARCHY
ROOT Hips
{
  OFFSET 1.44925e-005 102.336 -0.101585
  CHANNELS 6 Xposition Yposition Zposition Zrotation Xrotation Yrotation
  JOINT RightUpLeg
  {
    OFFSET -8.9458 -8.66707 0.101652
    CHANNELS 3 Zrotation Xrotation Yrotation
    JOINT RightLeg
    {
      OFFSET 0 -44.4227 1.3727
      CHANNELS 3 Zrotation Xrotation Yrotation
      JOINT RightFoot
      {
        OFFSET 0.253549 -42.0924 -1.46059
        CHANNELS 3 Zrotation Xrotation Yrotation
        JOINT RightToes
        {
          OFFSET 0.04 -4.41509 8.4991
          CHANNELS 3 Zrotation Xrotation Yrotation
          End Site
          {
            OFFSET -0.08 -0.137448 9.77979
          }
        }
      }
    }
  }
  JOINT Spine
  {
    OFFSET 0 11.8905 0
    CHANNELS 3 Zrotation Xrotation Yrotation
    JOINT Spine1
    {
      OFFSET 0 25.6574 0.127663
      CHANNELS 3 Zrotation Xrotation Yrotation
      JOINT HEad
      {
        OFFSET 0 8.73416 0.011341
        CHANNELS 3 Zrotation Xrotation Yrotation
        End Site
        {
          OFFSET -0.29 12.7742 2.51395
        }
      }
      JOINT LeftShoulder1
      {
        OFFSET 8.99 -0.362252 -0.22
        CHANNELS 3 Zrotation Xrotation Yrotation
        JOINT LeftArm
        {
          OFFSET 10.2827 -0.00337999 0.322123
          CHANNELS 3 Zrotation Xrotation Yrotation
          JOINT LeftForeArm
          {
            OFFSET 26.2597 0.099144 -1.42434
            CHANNELS 3 Zrotation Xrotation Yrotation
            JOINT LeftHand
            {
              OFFSET 22.0902 0.085362 1.02216
              CHANNELS 3 Zrotation Xrotation Yrotation
              End Site
              {
                OFFSET 13.419 -0.6 1.50291
              }
            }
          }
        }
      }
      JOINT RightShoulder
      {
        OFFSET -8.99 -0.362252 -0.22
        CHANNELS 3 Zrotation Xrotation Yrotation
        JOINT RightArm
        {
          OFFSET -10.2827 -0.00338 0.322123
          CHANNELS 3 Zrotation Xrotation Yrotation
          JOINT RightForeArm
          {
            OFFSET -26.364 0.099144 -1.42434
            CHANNELS 3 Zrotation Xrotation Yrotation
            JOINT RightHand
            {
              OFFSET -22.0324 0.085362 1.02216
              CHANNELS 3 Zrotation Xrotation Yrotation
              End Site
              {
                OFFSET -13.3284 -0.6 1.50291
              }
            }
          }
        }
      }
    }
  }
  JOINT LeftUpLeg
  {
    OFFSET 8.9458 -8.66707 0.101652
    CHANNELS 3 Zrotation Xrotation Yrotation
    JOINT LeftLeg
    {
      OFFSET 0 -44.4227 1.3727
      CHANNELS 3 Zrotation Xrotation Yrotation
      JOINT LeftFoot
      {
        OFFSET -0.253549 -42.0924 -1.46059
        CHANNELS 3 Zrotation Xrotation Yrotation
        JOINT LeftToes
        {
          OFFSET -0.04 -4.41509 8.4991
          CHANNELS 3 Zrotation Xrotation Yrotation
          End Site
          {
            OFFSET 0.08 -0.047448 9.77979
          }
        }
      }
    }
  }
}
MOTION
Frames:	12
Frame Time:	0.0333333
75.1213 101.075 70.4265 4.14559 3.79957 -160.187 -4.63902 -19.3097 -17.6473 -0.320353 38.0923 2.19746 6.60278 -16.2717 0.277716 0.0462048 0.000530889 0.662642 17.1452 7.6435 -1.70736 -7.00146 -4.72414 0.171171 0.285063 -13.0099 -6.34162 -26.8611 1.93708 -2.36278 -47.2181 18.3488 -17.0766 -28.2764 8.79249 -54.8783 11.1329 8.66099 -8.48799 40.7336 5.48712 7.67054 33.919 -8.67088 -9.896 -17.4751 23.4369 90.8055 -34.2533 8.66894 -1.2743 20.2046 -11.3454 23.6589 1.69983 63.7975 12.4748 -9.14202 -8.85413 -0.0569513 -1.30779e-009 8.75232e-006 -1.47281e-008 
74.184 101.744 69.1254 3.54899 4.10768 -160.643 -4.66786 -16.9249 -16.1714 -0.336961 36.0957 1.66743 7.03151 -16.1088 0.301485 0.0462048 0.000530889 0.662642 17.3932 8.38906 -2.15344 -7.4038 -4.53095 -0.115344 0.31434 -13.0117 -5.6803 -26.5536 2.13436 -3.0185 -46.4399 19.4614 -18.6755 -30.211 8.55134 -55.9586 12.5316 8.46355 -8.75882 40.1901 5.50247 7.84122 35.3186 -5.69352 -9.76937 -16.681 23.0776 91.8564 -33.0026 8.79933 -1.55725 20.9895 -13.0829 26.1328 1.52503 61.306 11.7741 -9.50763 -9.96279 -0.149375 -1.30779e-009 8.75232e-006 -1.47281e-008 
73.1469 102.333 67.8185 2.65102 4.57432 -161.1 -5.0974 -14.4015 -14.6585 -0.358151 34.396 1.06479 7.33492 -15.9485 0.314895 0.0462048 0.000530889 0.662642 17.1272 8.79851 -2.47919 -7.72027 -3.65293 -0.293413 0.536453 -12.9124 -5.40581 -25.9513 2.30392 -3.66165 -46.1018 19.8747 -19.8669 -31.8294 8.61166 -57.1039 13.6519 8.3456 -8.58008 39.7209 5.50235 7.96281 36.1382 -2.42566 -8.90227 -15.6293 22.7747 92.8075 -32.92 8.89402 -1.88121 21.2926 -13.7888 27.1047 1.21903 56.7544 9.83669 -10.4578 -11.1428 -0.27168 -1.30779e-009 8.75232e-006 -1.47281e-008 
71.9916 102.772 66.5117 1.57415 5.18741 -161.769 -5.87535 -11.882 -13.1116 -0.371289 33.1341 0.650099 7.69937 -16.0844 0.35054 0.0462048 0.000530889 0.662642 16.6315 9.07948 -2.68685 -8.2004 -2.43538 -0.321839 0.872484 -12.6778 -5.32082 -25.5024 2.40674 -4.08181 -45.7892 19.8184 -20.7423 -33.7335 8.77033 -58.4334 15.9893 8.10127 -8.2364 39.2482 5.49913 8.0808 36.4957 0.616206 -7.4562 -15.1095 22.4721 93.9021 -32.6841 9.01541 -2.28923 21.2193 -13.6777 26.3051 0.915391 50.846 8.06785 -11.729 -11.7659 -0.371183 -1.30779e-009 8.75232e-006 -1.47281e-008 
70.7407 103.031 65.2079 0.566374 5.77907 -162.712 -6.83945 -9.68024 -11.5538 -0.372637 32.32 0.524011 8.31677 -16.5074 0.426025 0.0462048 0.000530889 0.662642 16.1225 9.38458 -2.74367 -8.96405 -1.54702 -0.194931 1.08245 -11.6615 -5.1717 -25.4808 2.4645 -4.26881 -45.3765 19.405 -21.1091 -34.2124 9.62866 -59.7913 18.467 7.744 -8.6134 38.4464 5.43421 8.15321 36.859 3.13633 -5.76215 -15.4095 22.1419 95.097 -31.4037 9.26045 -3.06478 21.1595 -13.3259 24.1664 0.806334 44.6274 8.22007 -11.3746 -11.8882 -0.370415 -1.30779e-009 8.75232e-006 -1.47281e-008 
69.405 103.061 63.9245 -0.224387 6.17646 -164.059 -7.91277 -8.23585 -10.0167 -0.362693 32.2248 0.702187 8.96046 -17.078 0.519335 0.0462048 0.000530889 0.662642 15.8041 9.63717 -2.59056 -10.1627 -1.11166 0.165497 1.08429 -9.89382 -4.75397 -25.6712 2.49888 -4.33194 -45.2417 18.456 -20.7608 -33.9841 10.7353 -61.1369 20.8869 7.34527 -9.16739 37.3671 5.28338 8.10847 37.4251 5.36475 -3.9486 -15.4543 21.9159 95.911 -30.0092 9.46864 -3.75917 21.5297 -12.8933 21.6926 0.815632 38.5937 9.55476 -9.66043 -11.6818 -0.290105 -1.30779e-009 8.75232e-006 -1.47281e-008 
67.9579 102.82 62.6761 -0.896615 6.30336 -166.006 -9.21728 -7.82931 -8.36729 -0.343639 33.1758 1.17382 9.43027 -17.923 0.62572 0.0462048 0.000530889 0.662642 15.5964 9.6721 -2.19257 -11.8087 -0.74624 0.830298 1.08004 -8.24184 -3.96432 -25.8258 2.49611 -4.28702 -45.5116 16.788 -19.8375 -33.4737 12.0701 -62.7475 22.9008 7.0599 -9.27778 36.4671 5.1159 7.97081 37.8116 7.42836 -1.94957 -13.8497 21.9463 96.0657 -28.8844 9.54163 -3.98949 22.4256 -12.1363 19.989 0.800833 32.694 9.96505 -8.56743 -10.7805 -0.186454 -1.30779e-009 8.75232e-006 -1.47281e-008 
66.3931 102.31 61.466 -1.67355 6.16608 -168.359 -10.9181 -8.3813 -6.46833 -0.318933 35.1471 1.86372 10.0176 -19.2843 0.795856 0.0462048 0.000530889 0.662642 14.9609 9.39993 -1.63881 -13.4444 -0.181391 1.619 1.25223 -7.29049 -2.8682 -26.0219 2.45029 -4.09981 -45.8774 14.4988 -18.6865 -31.9263 13.9482 -64.907 23.523 6.97881 -9.26799 36.0245 5.01111 7.84733 37.6703 8.91948 0.238746 -10.2189 22.2616 95.5625 -26.776 9.55271 -3.92 23.5259 -11.1895 19.2324 0.680064 27.1677 8.71636 -8.53351 -9.22176 -0.0773973 -1.30779e-009 8.75232e-006 -1.47281e-008 
64.7133 101.563 60.281 -2.61238 5.89272 -170.398 -12.983 -9.40456 -4.64467 -0.294113 37.7404 2.63147 11.0386 -21.0339 1.06858 0.0462048 0.000530889 0.662642 13.529 8.82056 -1.18283 -14.4758 0.555305 2.13956 1.50684 -6.78695 -1.7112 -26.3517 2.39609 -3.85936 -46.1669 11.9316 -17.5224 -30.2186 15.7968 -67.3311 23.2457 6.93609 -9.66943 35.8961 4.96721 7.77889 37.2509 9.51472 2.4395 -5.3935 22.7699 94.3155 -23.5616 9.56415 -3.76053 24.5183 -10.6016 18.2331 0.3619 22.6484 7.12171 -8.36835 -8.12831 -0.00134379 -1.30779e-009 8.75232e-006 -1.47281e-008 
62.8692 100.681 59.1055 -3.49331 5.70072 -171.584 -15.1647 -10.1646 -3.46015 -0.27473 40.2594 3.2626 12.3313 -22.6545 1.39878 0.0462048 0.000530889 0.662642 11.7157 8.05148 -1.04572 -14.8913 1.37925 2.19988 1.6236 -6.28678 -0.780506 -26.6499 2.3633 -3.69515 -46.4483 9.47532 -16.4968 -29.721 17.0205 -69.361 22.6623 6.87464 -10.3974 35.8665 4.93146 7.70244 36.994 9.54902 4.43359 -1.08509 23.2012 92.5584 -21.1529 9.53235 -3.38106 25.3762 -10.5217 16.3644 0.124209 19.3154 6.0939 -7.53785 -8.35197 -0.0104547 -1.30779e-009 8.75232e-006 -1.47281e-008 
60.7422 99.7724 57.9802 -4.01959 5.69574 -172.192 -17.1672 -10.366 -2.83818 -0.263485 42.2099 3.62134 13.7106 -23.8975 1.73816 0.0462048 0.000530889 0.662642 10.3111 7.35306 -1.14112 -15.1207 2.15774 2.03126 1.5036 -5.73933 -0.230979 -26.8063 2.33138 -3.56571 -46.6107 7.61454 -15.9507 -30.208 17.6947 -70.7143 21.5717 6.91706 -11.01 35.9027 4.88492 7.58265 36.9265 9.45995 6.09177 0.842222 23.3527 91.2913 -20.3373 9.44889 -2.79897 26.2395 -10.6518 15.3242 0.613876 16.9355 4.27834 -6.82539 -9.06886 -0.0461563 -1.30779e-009 8.75232e-006 -1.47281e-008 
58.2004 98.8744 56.9842 -4.07065 5.78208 -172.795 -18.8446 -10.2829 -2.10752 -0.258989 43.4611 3.7872 15.3668 -24.8169 2.11136 0.0462048 0.000530889 0.662642 9.70294 6.96382 -1.20436 -15.2766 2.64782 1.94382 1.1778 -5.29636 -0.0832828 -26.9722 2.27512 -3.36221 -46.4266 6.79803 -16.2331 -30.2815 18.1485 -71.5571 19.987 7.08861 -11.3753 36.0301 4.85935 7.48816 36.8706 9.1049 7.23624 -0.0894902 23.2966 91.3328 -19.4853 9.44334 -2.64659 27.2923 -10.9396 15.1579 1.38583 15.8302 2.26391 -6.70164 -9.34082 -0.0593686 -1.30779e-009 8.75232e-006 -1.47281e-008 
